<svg width="77" height="77" viewBox="0 0 77 77" fill="none" xmlns="http://www.w3.org/2000/svg">
<path fill-rule="evenodd" clip-rule="evenodd" d="M52.2921 25.7619C51.0982 24.7152 49.3812 24.7391 48.3961 25.043C49.0413 24.2509 50.5449 23.601 50.9873 23.5223C51.3244 23.6487 52.2921 24.6427 52.2921 25.7619ZM56.1041 21.4274C55.3189 17.2273 45.5582 20.0107 40.6425 18.2266C40.5485 19.4511 42.1559 21.413 43.6935 22.1387C41.0654 24.42 38.706 29.0159 38.2293 34.6307C37.7548 29.0159 35.3951 24.42 32.767 22.139C34.3044 21.4132 35.9133 19.4514 35.8177 18.2271C30.9024 20.0112 21.1414 17.2281 20.3548 21.4282C20.1894 22.3175 20.6171 23.6718 21.079 24.0616C21.1617 23.7798 21.5933 22.8581 22.9539 22.6517C29.8306 21.6126 35.572 32.2112 30.3894 36.4964C30.3104 36.5623 30.3551 36.6821 30.4618 36.6821H46C46.1054 36.6821 46.1501 36.562 46.0722 36.4967C40.8882 32.2117 46.6297 21.6131 53.5066 22.6522C54.8681 22.8587 55.2986 23.7801 55.3816 24.0618C55.8434 23.6721 56.2711 22.3178 56.1044 21.4285L56.1041 21.4274ZM57.7768 11.7881C57.6531 11.3913 61.6855 11.3813 61.6855 13.9053C61.6855 15.5964 59.2734 16.3975 59.2734 18.1529C59.2734 18.9703 60.1529 19.5696 60.4228 19.5696C59.8013 16.752 62.3702 18.2266 63.064 18.7533C61.6855 14.9639 64.7883 14.9876 64.4829 13.2501C64.2704 12.0362 61.573 12.4027 60.5971 11.7881C58.8649 10.6979 56.8157 6.45483 55.4653 10.6979C57.9828 13.035 56.5178 16.4755 53.3218 16.4755C53.3218 16.4755 53.3041 16.9797 53.3333 17.0198C57.1454 16.8333 58.4741 14.0315 57.7768 11.7881ZM13.3033 18.7533C13.9969 18.2266 16.5654 16.752 15.9455 19.5696C16.2141 19.5696 17.0937 18.9703 17.0937 18.1529C17.0937 16.3975 14.6815 15.5964 14.6815 13.9053C14.6815 11.3813 18.7137 11.3913 18.5902 11.7881C17.8939 14.0317 19.2227 16.8336 23.0347 17.0198C23.0629 16.9797 23.0453 16.4752 23.0453 16.4752C19.8505 16.4752 18.3856 13.035 20.9017 10.6977C19.5514 6.45483 17.5021 10.6977 15.7699 11.7879C14.7937 12.4027 12.0964 12.0359 11.8842 13.2501C11.58 14.9881 14.6818 14.9644 13.3035 18.7538L13.3033 18.7533ZM24.127 25.7619C25.3221 24.7152 27.0395 24.7391 28.0231 25.043C27.3805 24.2509 25.8743 23.601 25.4329 23.5223C25.0959 23.6487 24.1268 24.6427 24.1268 25.7619H24.127ZM40.0429 2.2673L38.1838 0L36.3241 2.2673L38.1833 4.6531L40.0432 2.2673H40.0429ZM50.6579 9.12266L49.3359 7.51158L48.0145 9.12266L49.3357 10.6974L50.6581 9.12266H50.6579ZM61.3834 55.6963L59.7076 53.9225L58.0312 55.6961L59.7076 57.2524L61.3837 55.6961L61.3834 55.6963ZM28.3535 9.12266L27.0316 7.51158L25.7105 9.12266L27.0319 10.6974L28.3538 9.12266H28.3535ZM24.566 17.02H29.4983C33.645 17.02 35.5107 14.4746 36.0745 12.2674H40.2939C40.8579 14.4746 42.7226 17.0198 46.8706 17.0198H51.8029C51.8029 17.0198 52.6655 15.8492 52.882 15.2696C53.6609 13.184 52.6655 12.211 51.2132 12.211L49.3357 13.9127L47.4586 12.2116C46.0064 12.2116 45.011 13.184 45.7899 15.2699C45.8894 15.5364 46.1275 15.9282 46.3529 16.2727C44.6028 16.0323 42.3687 14.8341 41.8789 12.2674C41.8789 12.2674 43.1718 10.2134 43.4968 9.38204C44.6626 6.39242 43.1734 5.17055 40.9957 5.17055L38.184 8.47538L35.3724 5.17055C33.1947 5.17055 31.7058 6.39242 32.8729 9.38204C33.196 10.2134 34.4905 12.2676 34.4905 12.2676C33.9994 14.8341 31.7658 16.0323 30.0157 16.2729C30.2422 15.928 30.4792 15.5364 30.5782 15.2696C31.3558 13.184 30.363 12.2113 28.9097 12.2113L27.0321 13.913L25.1546 12.2118C23.7015 12.2118 22.7087 13.1843 23.4864 15.2702C23.7028 15.8495 24.5668 17.0203 24.5668 17.0203L24.566 17.02ZM75.5574 32.3081C74.6054 32.79 69.0204 35.4062 61.8661 34.4385C61.9403 34.0972 62.0032 33.7537 62.0547 33.4083C66.8163 32.8387 70.6867 32.0311 73.1534 30.6591C75.965 29.0941 77.1945 25.3582 75.7754 22.5793C75.7385 22.5092 75.6366 22.4966 75.5858 22.5556C74.8079 23.4509 69.9181 28.7702 62.2137 30.424C62.1941 30.0248 62.1576 29.6266 62.1045 29.2305C65.8464 27.1086 69.4994 24.6635 71.2395 22.4278C73.8686 19.0477 73.6269 14.7359 71.1247 12.5376C71.1118 12.5265 71.0968 12.5183 71.0805 12.5136C71.0643 12.5088 71.0472 12.5076 71.0304 12.5099C71.0136 12.5123 70.9975 12.5182 70.9832 12.5273C70.9689 12.5364 70.9567 12.5484 70.9474 12.5626C70.1559 13.8687 62.7457 25.8451 54.6103 31.0159C54.511 31.0794 54.4109 31.1415 54.3101 31.2024C54.0767 31.344 54.0512 31.6474 54.2495 31.8273C55.188 32.6773 55.7708 33.8602 55.7708 35.1737C55.7708 37.4576 54.0106 39.3568 51.6838 39.7689C50.5015 39.998 48.7951 39.9313 47.1553 39.3891C47.0816 39.3654 47.0052 39.4142 47.0052 39.4882V46.7203C47.0052 46.8367 47.1821 46.8657 47.2238 46.7546C48.2207 44.1139 51.204 43.553 52.5089 43.553C52.9784 46.3748 53.8171 48.7122 54.9065 49.9704C56.6808 52.0147 59.578 51.986 60.8341 50.5726C60.8443 50.5611 60.8517 50.5473 60.8559 50.5325C60.86 50.5176 60.8608 50.502 60.8581 50.4869C60.8554 50.4717 60.8493 50.4573 60.8402 50.4448C60.8312 50.4323 60.8195 50.422 60.806 50.4146C60.0678 49.9907 55.8448 47.3976 54.9995 43.1487C55.3313 43.0361 55.6556 42.9027 55.9706 42.7493C57.3339 45.0052 59.3181 47.0145 60.9155 47.7821C63.5989 49.069 66.0552 48.4431 67.1447 46.5589C67.1842 46.4926 67.1357 46.4099 67.0556 46.4025C65.3959 46.27 60.3022 44.8101 58.1334 41.2535C58.3842 41.0257 58.6238 40.7858 58.8512 40.5346C61.1212 42.2626 64.3296 43.79 66.6269 44.1017C69.315 44.4673 72.3608 43.6093 72.4345 40.4836C72.4358 40.4211 72.3797 40.3698 72.3134 40.3735C71.3575 40.4314 65.0309 40.7066 60.5226 38.1188C60.6793 37.8211 60.8253 37.5179 60.9605 37.2098C60.9605 37.2098 67.7724 38.8201 71.0001 38.2868C74.2075 37.7575 76.0861 35.3665 75.7235 32.3916C75.713 32.3178 75.6266 32.2739 75.5576 32.3089L75.5574 32.3081ZM15.4073 37.2087C15.5429 37.5169 15.6893 37.8202 15.8463 38.118C11.3393 40.7045 5.01537 40.4314 4.05526 40.3727C3.98784 40.369 3.93149 40.4227 3.93307 40.4841C4.00812 43.6088 7.05278 44.4665 9.74089 44.101C12.0372 43.7892 15.2472 42.2618 17.5163 40.5341C17.7441 40.785 17.9837 41.0249 18.2342 41.253C16.0643 44.8093 10.9714 46.2695 9.31192 46.402C9.2316 46.4099 9.18473 46.4923 9.22291 46.5587C10.3123 48.4428 12.7687 49.0687 15.4534 47.7818C17.0492 47.0142 19.0334 45.005 20.3961 42.749C20.7115 42.902 21.036 43.0354 21.3678 43.1485C20.5225 47.3974 16.2995 49.9899 15.5613 50.4146C15.5479 50.4221 15.5362 50.4324 15.5273 50.4449C15.5183 50.4574 15.5123 50.4718 15.5096 50.4869C15.5069 50.5021 15.5076 50.5176 15.5117 50.5325C15.5157 50.5473 15.5231 50.561 15.5332 50.5726C16.7893 51.9857 19.6875 52.0144 21.4619 49.9701C22.5513 48.7119 23.3889 46.3746 23.8582 43.5527C25.1643 43.5527 28.1466 44.1136 29.1433 46.754C29.1862 46.8654 29.3632 46.8365 29.3632 46.7198V39.4879C29.3632 39.4142 29.2855 39.3652 29.2118 39.3889C27.5725 39.9313 25.8656 39.9972 24.6845 39.7681C22.3567 39.3565 20.5963 37.4573 20.5963 35.1737C20.5963 33.8607 21.1809 32.6765 22.1173 31.8267C22.3174 31.6477 22.2903 31.3443 22.0588 31.2026C21.9571 31.1418 21.8562 31.0798 21.756 31.0165C13.6253 25.8485 6.21933 13.8803 5.4209 12.5657C5.41153 12.5512 5.39916 12.5388 5.38461 12.5295C5.37006 12.5201 5.35368 12.514 5.33657 12.5115C5.31945 12.509 5.302 12.5102 5.28539 12.515C5.26878 12.5198 5.25339 12.5282 5.24026 12.5394C2.74175 14.739 2.49896 19.049 5.12834 22.4284C6.86845 24.6641 10.5214 27.1091 14.2621 29.2311C14.2093 29.627 14.1733 30.025 14.1541 30.424C6.45607 28.7718 1.56992 23.4614 0.784657 22.5598C0.731991 22.4981 0.627974 22.5105 0.592424 22.5808C-0.824309 25.3616 0.405457 29.0944 3.21417 30.6594C5.68108 32.0313 9.55181 32.839 14.3131 33.4086C14.3646 33.7539 14.4274 34.0975 14.5014 34.4387C7.35456 35.4052 1.77242 32.795 0.812834 32.3094C0.741734 32.2731 0.655361 32.3181 0.646407 32.3932C0.284851 35.3678 2.16215 37.7565 5.36955 38.286C8.59618 38.8193 15.4078 37.209 15.4078 37.209L15.4073 37.2087ZM59.7079 59.5368L57.2257 57.5839C56.235 58.1738 55.5072 59.1102 55.2243 60.208C53.7312 60.4168 49.6612 59.5128 50.057 58.9132C54.5178 52.6388 51.1058 48.9028 47.0049 49.1109V53.3242C47.0049 54.6777 45.8239 55.7745 44.369 55.7745H41.5371C39.5057 55.7745 38.1833 57.8164 38.1833 57.8164C38.1833 57.8164 36.8608 55.7743 34.8294 55.7743H31.9978C30.5416 55.7743 29.3632 54.6775 29.3632 53.3242V49.1109C25.2623 48.9028 21.8476 52.6385 26.3098 58.9129C26.7022 59.5065 22.5183 60.4566 20.556 60.2164C20.0388 59.6803 19.293 59.3422 18.458 59.3422C18.1029 59.3423 17.7507 59.4057 17.4178 59.5291C17.4178 59.5291 9.70639 52.2277 9.56524 52.1563L9.62844 52.0089C10.0682 51.1873 9.39592 50.2919 8.9709 50.3551C9.46465 49.7626 9.48756 47.1701 6.74837 46.5702C6.82868 47.0911 6.8695 48.1539 6.8695 48.1539C6.8695 48.1539 4.75546 47.0111 3.6937 47.9975C2.76097 49.1017 4.05526 51.1048 4.05526 51.1048C4.05526 51.1048 2.97348 51.1312 2.44023 51.0859C3.22418 53.7376 5.85382 53.5499 6.42262 53.0266C6.38576 53.448 7.33639 54.0492 8.14219 53.5673L8.49611 53.3961C8.55852 53.4796 16.069 60.5756 16.069 60.5756C15.7241 61.0875 15.56 61.7159 15.6733 62.3858C15.8515 63.4325 16.7232 64.3002 17.8371 64.5256C18.6236 64.6836 19.3631 64.5309 19.9561 64.1838L21.9443 66.029C22.1207 66.1896 22.3603 66.2897 22.6274 66.2707C23.1137 66.2381 23.4779 65.8441 23.4411 65.392C23.4253 65.1879 23.321 65.0128 23.1772 64.8798C23.1456 64.845 21.1522 62.9943 21.1522 62.9943C22.7967 61.8417 25.8606 61.0293 28.4033 61.0293C28.8499 61.0293 29.0601 60.6512 28.9063 60.2807C27.7542 57.5104 30.2309 55.5033 32.7931 57.137C33.9107 57.8493 35.0459 59.2526 35.9012 61.5939C31.6976 62.6117 26.4194 65.416 25.3515 68.4769C24.9402 69.6588 26.2985 71.2699 27.948 71.594C27.9625 71.5972 27.9774 71.5975 27.9919 71.5948C28.0065 71.5922 28.0204 71.5867 28.0328 71.5787C28.0452 71.5706 28.0559 71.5602 28.0643 71.548C28.0726 71.5358 28.0785 71.5221 28.0815 71.5076C28.9432 66.938 33.8575 63.5329 36.4144 62.9546C36.5427 63.2988 36.5008 63.1874 36.6293 63.5302C33.8443 64.8474 31.1436 67.6251 30.3725 70.9278C30.0183 72.4401 31.705 73.8034 33.0972 74.1765C33.1673 74.195 33.236 74.1465 33.24 74.0791C33.5046 69.9026 35.3487 66.3555 37.0009 64.7421C37.0462 65.0576 37.0801 65.3747 37.1028 65.6927C37.1028 65.6927 35.4111 70.4059 35.4111 73.8447C35.4111 75.4447 37.789 76.5615 38.1401 76.7177C38.579 76.5615 40.9551 75.4447 40.9551 73.8447C40.9551 70.4056 39.264 65.6925 39.264 65.6925C39.2871 65.3745 39.3215 65.0574 39.3672 64.7418C41.0183 66.3561 42.8635 69.9013 43.1271 74.0778C43.1286 74.0942 43.1337 74.1101 43.142 74.1243C43.1504 74.1385 43.1617 74.1508 43.1752 74.1602C43.1888 74.1696 43.2042 74.1759 43.2204 74.1788C43.2367 74.1816 43.2534 74.1808 43.2693 74.1765C44.6634 73.8034 46.3484 72.4401 45.9958 70.9278C45.2232 67.6256 42.5238 64.8474 39.739 63.5302C39.8662 63.1874 39.8241 63.2985 39.9529 62.9543C42.5111 63.5326 47.4236 66.9378 48.2855 71.5074C48.2918 71.5365 48.3094 71.5619 48.3345 71.578C48.3595 71.5942 48.3899 71.5997 48.419 71.5935C50.0675 71.2696 51.4279 69.658 51.0142 68.4764C49.949 65.4154 44.6694 62.6112 40.465 61.5934C41.3219 59.2524 42.4574 57.8488 43.575 57.1365C46.1357 55.5028 48.6126 57.5096 47.4605 60.2802C47.3067 60.6507 47.5153 61.0288 47.9635 61.0288C50.8398 61.0288 54.3835 62.0677 55.7858 63.4612C56.6819 64.8058 58.3375 65.6659 60.2061 65.4818C62.3291 65.2738 64.0602 63.679 64.2993 61.7072C64.5082 59.9797 63.6147 58.4287 62.1906 57.5834L59.7073 59.5365L59.7079 59.5368ZM41.4141 46.9515C42.2984 46.6234 43.6846 46.8889 43.6374 48.1655C43.6261 48.4552 44.0319 48.4552 44.0614 48.1595C44.326 46.2477 43.0344 45.6973 41.6824 45.9211C41.5144 45.2638 41.377 44.6893 41.2205 44.1199C41.0957 43.6591 41.0499 42.7938 41.5832 42.7938C41.8707 42.7938 41.7551 43.5985 41.728 43.9453C41.7043 44.2495 41.8136 44.4336 42.0606 44.4422C42.2144 44.4486 42.4066 44.2521 42.5214 44.1218C43.2951 43.2467 43.4747 41.8921 42.5683 41.2388C41.8099 40.6903 39.9107 41.0984 39.3888 41.8797C39.3098 41.5853 38.9332 41.0995 38.7526 40.888C38.5769 40.6813 38.5314 40.5399 38.7742 40.3587C38.8887 40.2708 39.235 39.9263 39.235 39.5708C39.235 39.3607 39.0717 38.9725 38.554 38.9725C38.1453 38.9725 37.6911 39.2554 37.6911 39.8863C37.6911 40.0267 37.7253 40.1768 37.8156 40.3385C37.5576 40.2958 36.8561 40.3132 36.4958 40.4022L41.4762 54.0692C42.9019 53.3656 43.9471 52.2514 43.9471 51.0556C43.9471 50.0365 42.4461 50.3746 41.7172 51.1696C41.4828 49.8774 41.2743 48.6843 41.0462 47.4951C40.9841 47.167 41.1508 47.0492 41.4141 46.9505V46.9515ZM34.3715 37.6672L35.418 40.5744C34.5221 40.7877 33.0812 41.4408 33.0812 42.3058C33.0812 43.4576 35.1194 44.2076 36.2975 44.1176C36.2391 44.3804 36.3065 44.6145 36.4898 44.8286C36.0621 44.8286 35.2553 45.0276 34.9903 45.3131C34.3654 44.7311 33.388 44.5191 32.9232 44.8733C32.4563 45.2304 32.4423 45.835 32.9298 46.5186C33.2695 46.9918 33.3969 47.4587 33.0151 48.007C34.4352 48.007 33.9123 46.1605 34.4687 46.1605C34.3957 46.5186 34.4402 46.9328 34.6019 47.3924C34.7088 47.6978 34.7088 47.9148 34.5256 48.2087C34.0674 48.9413 33.3548 50.6235 33.4512 52.145C32.9856 52.1424 32.7488 52.0286 32.9129 51.3924C32.974 51.1559 32.8278 50.9869 32.6343 51.2786C32.4205 51.6004 32.3172 52.1503 32.3172 52.3852C32.3172 53.7398 33.9315 54.0126 34.5471 53.7261C36.3291 55.4509 39.8296 54.9906 41.0014 54.412L34.8387 37.5026C34.7128 37.1832 34.2609 37.3359 34.3715 37.6677V37.6672ZM34.1582 51.5962C34.0308 50.9002 34.9993 49.656 36.2314 48.4552C35.9692 49.2378 36.1322 50.5861 36.6464 51.0506C35.7527 51.0506 34.6912 51.2183 34.1579 51.5962H34.1582Z" fill="#051945"/>
</svg>
