<svg width="78" height="78" viewBox="0 0 78 78" fill="none" xmlns="http://www.w3.org/2000/svg">
<path d="M0.000457777 39.187C-0.102807 17.6516 17.2777 0.103722 38.813 0.000457777C60.3484 -0.102807 77.8963 17.2777 77.9995 38.813C78.1028 60.3476 60.7223 77.8963 39.187 77.9995C17.6516 78.1028 0.103722 60.7223 0.000457777 39.187Z" fill="#007AC5"/>
<path d="M0.645227 39.1831C0.543527 18.0045 17.6369 0.746022 38.8163 0.645105C59.9949 0.543405 77.2534 17.6368 77.3543 38.8162C77.456 59.9956 60.3626 77.2525 39.184 77.3542C18.0054 77.4559 0.746927 60.3625 0.646009 39.1839L0.645227 39.1831Z" fill="white"/>
<path d="M50.5257 7.79537C50.3951 8.24911 49.921 8.50962 49.4688 8.37741C49.0159 8.24677 48.7554 7.77269 48.886 7.32051C49.0167 6.86756 49.4907 6.60705 49.9437 6.7377C50.3966 6.86834 50.6572 7.34242 50.5257 7.79459V7.79537Z" fill="#007AC5"/>
<path d="M39.7372 72.8003C39.6066 73.2525 39.1325 73.5138 38.6796 73.3824C38.2266 73.2517 37.9661 72.7777 38.0975 72.3255C38.229 71.8718 38.703 71.6112 39.1552 71.7427C39.6082 71.8741 39.8687 72.3474 39.7372 72.8003Z" fill="#007AC5"/>
<path d="M42.918 5.15819L43.2474 6.54444L42.3407 6.44822L42.918 5.15819ZM44.8237 9.04939C44.9434 9.05486 45.322 9.03843 45.1546 8.91092H45.2117C45.1906 8.76697 45.0216 8.70908 44.945 8.71691C44.6234 8.61521 44.5382 8.31011 44.4412 8.0097C44.2644 7.45818 44.1235 6.87223 43.9851 6.35121L43.4664 4.40327C43.3835 4.08643 43.2427 3.4512 42.9039 4.01212C42.8226 4.14589 42.6763 4.47837 42.5808 4.67316C42.0802 5.6972 41.6045 6.73845 41.0772 7.74919C41.0084 7.8814 40.9513 8.04491 40.8355 8.14191C40.636 8.31011 40.6204 8.17711 40.4154 8.2397C40.2895 8.27803 40.1588 8.33436 40.2386 8.49004C40.3137 8.63555 40.6759 8.60425 40.8042 8.61442C41.0248 8.63164 41.8126 8.86398 41.8666 8.57374C41.9519 8.11844 41.3401 8.66762 41.6546 7.91817C41.7618 7.7578 41.9174 7.03338 42.1247 6.91056C42.2233 6.85189 43.2857 6.96219 43.371 7.04199C43.4484 7.11474 43.4687 7.41437 43.4961 7.51763C43.5697 7.79691 43.6502 8.07542 43.716 8.35705L43.7723 8.5714L43.694 8.69031C43.7097 8.83895 43.7285 8.93517 43.9561 8.94065C44.2424 8.9782 44.535 9.03531 44.8229 9.04939H44.8237ZM53.828 12.551C54.3921 12.8537 55.2417 13.0282 55.8503 12.7732C56.527 12.5549 57.0605 12.0808 57.4055 11.4636L57.3555 11.4354L57.4055 11.4628C58.2481 9.94043 57.3782 8.41259 55.8566 7.80943C55.5804 7.69991 55.0625 7.49103 54.7739 7.66627C54.6416 7.74685 54.4531 8.19198 54.4046 8.35079C54.3592 8.49786 54.292 8.68561 54.4938 8.71378C54.651 8.73568 54.7285 8.47283 54.8145 8.39381C54.9757 8.24752 55.1392 8.19041 55.3645 8.19511C56.6318 8.22014 57.174 9.67758 56.7914 10.718C56.4159 10.51 56.0373 10.3042 55.6633 10.0922C55.5343 10.0187 55.1251 9.61578 55.0101 9.63925C54.7832 9.74407 54.5313 10.0945 54.4101 10.262C54.1128 10.747 54.9569 10.3371 54.9788 10.3339C55.3934 10.3511 56.0412 10.808 56.3831 11.0419C56.6091 11.196 56.6232 11.135 56.4394 11.419C56.2696 11.6811 56.0639 11.9298 55.8018 12.1051C55.2957 12.4438 54.6901 12.4149 54.1363 12.1207C53.6763 11.8766 53.2632 11.559 53.4173 10.9911C53.4784 10.7658 53.5159 10.4403 53.1686 10.6852C53.0027 10.8025 52.5811 11.4276 52.718 11.6787C52.8783 12.0574 53.4893 12.3687 53.828 12.551ZM60.8845 17.4983C60.9995 17.2214 60.4307 17.1118 60.7851 16.8545C61.1199 16.4344 61.5322 16.0682 61.9124 15.6888C61.8545 16.5541 61.6707 17.8034 61.9046 18.5708C61.939 18.829 62.1299 19.0746 62.32 19.2741L62.5907 19.5448C62.8191 19.7545 63.0976 19.7944 62.9529 19.4212L62.7197 19.0097C62.604 18.6663 62.6227 18.2728 62.6173 17.909C62.6102 17.424 62.6196 16.9382 62.6282 16.4539L62.6384 15.972C62.6462 15.627 62.6673 15.6708 63.0108 15.67C63.5654 15.6693 64.1208 15.6755 64.6755 15.6857C64.9305 15.6904 65.1613 15.7178 65.3952 15.8257C65.4703 15.8601 65.6111 16.0127 65.6949 15.9947C66.1056 15.9047 65.5415 15.4588 65.4398 15.3603C65.3084 15.232 65.1738 15.0113 65.0213 14.9222C64.7936 14.7892 64.8359 14.883 64.699 14.998C64.5754 15.1021 64.8077 15.0747 64.5402 15.142C64.3665 15.1858 64.1224 15.1561 63.9472 15.1576L62.4193 15.1819C62.7283 14.8737 63.06 14.3714 63.434 14.1688C63.7313 14.0076 63.6476 14.2502 63.912 14.2502C64.1615 14.2502 64.0911 14.0444 64.0152 13.9146C63.8666 13.6603 63.4575 13.3497 63.2353 13.1346C63.0632 12.9687 62.6548 12.763 62.816 13.1987C62.956 13.5766 63.0741 13.453 62.7182 13.8129L61.9085 14.621L60.9384 15.5887C60.7272 15.7983 60.4065 16.2466 60.1186 16.3452C59.9285 16.4101 59.729 16.1684 59.5921 16.2975C59.3785 16.4993 60.0356 16.9499 60.16 17.0915C60.2688 17.2112 60.7405 17.8417 60.8837 17.4967L60.8845 17.4983ZM68.9837 21.6344C69.5649 21.8315 70.0633 22.4041 70.1415 23.0605C70.2487 23.9586 69.6064 24.6799 68.8632 25.0742C68.2929 25.3761 67.5747 25.574 66.9677 25.2502C66.2198 24.8512 65.9507 23.9077 66.2479 23.1395C66.636 22.1515 67.9276 21.3645 68.9845 21.6351L68.9837 21.6344ZM68.7662 26.0067C70.3136 25.5952 71.4057 23.7348 70.3989 22.3298C70.1822 21.5929 69.2856 21.0727 68.5714 20.953C67.3729 20.7527 66.1157 21.4278 65.6518 22.5606C64.8711 24.453 66.7916 26.5324 68.7662 26.0067ZM68.9539 31.3076C68.8562 31.234 68.9117 30.9782 68.7106 31.0025C68.5511 31.022 68.5698 31.209 68.5683 31.2552C68.5604 31.5556 68.7146 31.953 68.767 32.262C68.7897 32.3942 68.7983 32.8292 69.0298 32.8135C69.1284 32.8065 69.2066 32.6962 69.1417 32.6359C69.3459 32.5201 68.9946 32.2886 69.4358 32.1415C69.8286 32.0101 70.2627 31.9584 70.668 31.8802C70.772 31.8599 71.0889 31.7488 71.1585 31.8004C71.3196 31.9178 71.365 32.8651 71.401 33.0513L71.6255 34.2123C71.0607 34.3218 70.3245 34.5964 69.7754 34.533C69.5305 34.5049 69.6823 34.5275 69.5274 34.3742C69.4366 34.2842 69.4499 34.1865 69.313 34.2021C69.0885 34.2866 69.3498 35.9036 69.5579 35.9889C69.7143 36.053 69.7785 35.9138 69.7988 35.8105C69.8528 35.5344 69.6799 35.4272 69.985 35.3537C70.8628 35.1072 71.7843 34.9766 72.6801 34.8045C72.9726 34.7482 73.2801 34.659 73.5766 34.6316C73.8629 34.605 73.8254 34.6386 73.9787 34.8029C74.0413 34.8702 74.132 34.986 74.179 34.9727C74.4809 34.9109 74.2126 34.2741 74.1782 34.0957C74.1391 33.8947 74.1524 33.6271 74.0694 33.4401C73.9959 33.2735 73.6634 33.1006 73.7182 33.4354C73.8269 33.8023 73.5868 33.8329 73.2433 33.8994C73.065 33.9338 72.249 34.2107 72.1082 34.1035C72.0519 34.0613 72.0386 33.7445 72.0253 33.678L71.8649 32.8526L71.6396 31.6909L72.4994 31.5251C72.6715 31.4922 72.8709 31.4179 73.0446 31.4194C73.2066 31.421 73.223 31.439 73.3489 31.5704C73.4467 31.6721 73.5469 31.9514 73.6979 31.6534C73.7495 31.5517 73.6509 31.3068 73.6298 31.2145C73.5555 30.8843 73.5031 30.5519 73.4459 30.2178C73.4256 29.9745 73.0478 29.9784 73.1025 30.2475C73.4757 30.6622 72.3085 30.7646 72.1583 30.7944C71.4691 30.9274 70.7814 31.0635 70.0914 31.1926C69.8911 31.2309 69.1839 31.4797 68.9547 31.3076H68.9539ZM69.7558 43.5835C68.8788 40.8728 74.1774 40.3565 73.8793 43.1939C73.6697 45.1818 70.3277 45.2444 69.7558 43.5835ZM69.2825 42.2927C68.9852 43.5311 69.5156 44.8297 70.7063 45.3648C71.5262 45.7333 72.8749 45.7529 73.4553 45.0762C74.2963 44.473 74.5435 43.0891 74.2376 42.1527C73.4733 39.8112 69.8591 39.8949 69.2825 42.2927ZM68.5526 49.9382C68.4408 49.8756 68.2366 49.8138 68.1763 49.7082C68.0879 49.5541 68.2499 49.4336 68.1826 49.2936C67.9667 48.8438 67.6279 49.8795 67.5528 50.0438C67.4879 50.1846 67.2125 50.7385 67.599 50.6391C67.7101 50.6102 67.7907 50.3896 67.8415 50.2981C68.6144 50.7823 69.5415 51.1805 70.366 51.6178C69.7542 51.6358 69.1433 51.6483 68.5636 51.6867C68.1576 51.7133 67.75 51.7344 67.344 51.7672C67.0576 51.7899 66.6626 51.7618 66.8198 52.1529C66.9591 52.4979 67.4636 52.8883 67.6999 53.1566L69.083 54.7244C68.1654 54.431 67.1914 54.2018 66.3011 53.8357C66.1376 53.7684 66.2112 53.5556 65.9616 53.7973L65.9006 53.8982C65.777 54.0883 65.7035 54.3614 65.6135 54.571C65.5572 54.7032 65.3131 55.1139 65.5697 55.1812C65.7958 55.2407 65.8318 54.8589 65.9632 54.7556C66.2198 54.5538 66.6141 54.7564 66.8941 54.8417L68.8217 55.4237C69.288 55.5646 69.7761 55.7719 70.2565 55.8571C70.7783 55.9494 70.578 55.5755 70.3543 55.3259L67.8149 52.4932L70.4435 52.3602C70.8862 52.3375 71.3337 52.3336 71.7749 52.2929C71.9721 52.2749 72.4282 52.1451 72.0268 51.8924C70.8729 51.2329 69.7096 50.5883 68.5511 49.9374L68.5526 49.9382ZM66.3755 61.327C66.1243 61.4295 66.2284 61.5828 65.9483 61.4319C65.698 61.2965 65.4453 60.9781 65.2286 60.7833L63.6749 59.383C63.4003 59.135 63.1359 58.8487 62.8386 58.6273C62.4655 58.3496 62.3834 58.5858 62.4498 58.9527C62.7143 60.3914 62.9505 61.8324 63.1406 63.2828L61.9719 62.2282C61.7145 61.9959 60.8508 61.4287 60.8461 61.0829C60.8446 60.9719 61.0401 60.8936 60.976 60.7544C60.8375 60.454 60.5535 60.8569 60.4542 60.9742C60.3095 61.1447 59.3378 62.0366 59.8135 62.0898C59.9676 62.107 60.0247 61.8879 60.1467 61.8512C60.3009 61.8042 60.3861 61.8965 60.5136 61.9912C61.08 62.4121 61.5885 62.9362 62.1127 63.4095C62.3497 63.6231 63.6155 65.0336 63.8807 64.7465C63.9769 64.6417 63.9002 64.4312 63.8799 64.3209C63.8095 63.9454 63.7477 63.5691 63.6851 63.1928L63.5709 62.4981C63.4395 61.6728 63.3237 60.8475 63.2118 60.019L64.3962 61.0876L65.1621 61.7776C65.2458 61.8527 65.5001 62.0248 65.5204 62.15C65.5478 62.3135 65.3107 62.4223 65.4156 62.5897C65.5165 62.7493 65.6636 62.592 65.7551 62.5255C65.9327 62.3972 66.7518 61.5547 66.6594 61.3599C66.6102 61.2097 66.4623 61.2918 66.3747 61.3278L66.3755 61.327ZM57.9891 68.7089C57.8366 68.6627 57.7466 68.3834 57.6793 68.2716L57.1622 67.4118C56.768 66.7578 56.2884 66.0967 55.9825 65.3989C55.9442 65.3113 55.8574 65.1979 55.8777 65.1017C55.8996 64.9984 56.0764 64.9765 56.0928 64.8591C56.1171 64.6878 55.9943 64.6487 55.8378 64.6753C55.6719 64.7042 55.4959 64.8951 55.3528 64.9827L54.6628 65.3778C54.378 65.4873 54.5861 65.7228 54.7911 65.7025C55.1204 65.6696 55.0039 65.4748 55.2526 65.7502C55.5882 66.1226 55.8472 66.6874 56.1108 67.127C55.7439 67.0097 55.3739 66.8923 54.9999 66.7977C54.3452 66.5888 53.3618 66.2376 52.7242 66.5505C52.5349 66.6436 52.2846 66.7648 52.1234 66.901C51.8879 67.1012 51.9169 67.2765 52.2314 67.2373C52.4379 67.2115 52.567 67.1044 52.7884 67.1036C53.1115 67.1028 53.4408 67.1943 53.7514 67.2663C54.141 67.3563 54.5274 67.4611 54.9139 67.562L55.5867 67.7427C55.6407 67.7576 55.9207 67.7951 55.9481 67.8428C55.9872 67.9101 55.8589 68.2168 55.8378 68.3013C55.6923 68.8833 55.5687 69.8549 55.226 70.358C55.1916 70.4072 54.9076 70.6372 54.9045 70.7163C54.8975 70.8962 55.061 70.9658 55.2002 70.8712C55.4372 70.7186 55.9035 70.5387 56.0928 70.3337C56.3518 70.0544 56.0529 70.0967 55.9935 69.9199C55.9285 69.7274 56.1359 69.2236 56.1804 69.0335L56.4801 67.7404L57.0613 68.7104C57.1153 68.8012 57.2984 69.0226 57.2733 69.1438C57.2373 69.3175 56.9839 69.3183 57.0206 69.5209C57.0848 69.8714 57.7341 69.3285 57.8389 69.2666C57.889 69.2369 58.9709 68.6173 58.4233 68.5774C58.3983 68.543 58.0791 68.7362 57.9891 68.7089ZM49.4456 72.7761C49.347 72.7197 49.3431 72.5883 49.3118 72.4905C49.1921 72.1111 49.1201 71.7082 49.0223 71.3218C48.8682 70.7139 48.682 69.959 48.5201 69.305C48.4294 68.9404 48.2275 67.6934 47.8278 68.5939C47.2348 69.9308 46.6324 71.26 45.9792 72.5688C45.8204 71.9288 45.6584 71.2905 45.5035 70.6498C45.4339 70.3611 45.1523 69.6922 45.3627 69.4348C45.4394 69.341 45.6334 69.3527 45.6029 69.1876C45.5544 68.9295 44.1713 69.3097 43.996 69.4036C43.6651 69.5811 43.8411 69.7188 44.0719 69.7431C44.3222 69.7697 44.4239 69.6085 44.485 69.9113C44.7502 70.7272 44.927 71.5776 45.1335 72.4107C45.1953 72.6587 45.3838 74.228 45.7609 74.1991C46.0754 74.1052 46.3406 73.1015 46.4798 72.7964L46.7701 72.1628C47.1213 71.4031 47.4898 70.6521 47.863 69.9027L48.2729 71.5525C48.3629 71.9148 48.7376 72.7417 48.4974 73.0522C48.4215 73.15 48.2072 73.1265 48.2588 73.3049C48.3159 73.5036 48.5107 73.4097 48.6312 73.3847C48.8823 73.3315 50.0159 73.1743 49.9681 72.8731C49.9048 72.6071 49.5958 72.8614 49.4448 72.7753L49.4456 72.7761ZM32.3084 70.7702C32.2708 70.9314 32.22 71.49 32.0932 71.5651C31.9211 71.6675 31.4502 71.3429 31.336 71.2201C31.1725 71.0456 31.0708 70.8109 31.034 70.5762C30.9714 70.1765 31.052 69.6116 31.4682 69.4309C31.6794 69.3457 32.5227 69.3754 32.5227 69.7321C32.5227 70.0646 32.3835 70.4479 32.3091 70.771L32.3084 70.7702ZM30.9565 73.1164C30.8243 72.7315 30.8979 72.1862 31.2452 71.9296L31.4126 71.8342C31.4752 71.8608 31.9759 71.9085 32.0252 71.9985C32.0565 72.0548 31.9501 72.3208 31.936 72.3818L31.6692 73.5318C31.3547 73.5318 31.0543 73.3519 30.9565 73.1164ZM32.9162 69.1822C32.4327 69.0578 31.9774 68.8739 31.4674 68.9506C30.0858 69.1579 29.8144 70.8227 30.8767 71.6183C30.107 72.151 29.7776 73.2509 30.8329 73.7594C31.3555 74.0113 32.0455 74.0692 32.6088 74.2155C32.6776 74.2421 32.8521 74.2226 32.8755 74.0903C32.9006 73.9472 32.7684 73.9386 32.6807 73.8768C32.4914 73.7454 32.4773 73.7438 32.3975 73.6077C32.5485 73.4637 32.5892 72.9161 32.6448 72.6775L32.9882 71.1919C33.0461 70.9447 33.172 69.8299 33.4411 69.6742C33.4826 69.65 34.1155 69.6734 33.7697 69.3926C33.5749 69.2307 33.1603 69.244 32.917 69.1814L32.9162 69.1822ZM23.0412 65.546C23.218 65.4498 23.099 65.305 23.0005 65.2127C22.7877 65.0148 22.402 64.8803 22.1485 64.7254C22.0265 64.6503 21.7003 64.3804 21.5548 64.5353C21.3623 64.7402 21.7464 64.8349 21.8176 64.9554C21.9412 65.1619 21.6799 65.4952 21.5736 65.6868C21.263 66.2454 20.936 66.7969 20.616 67.3508C20.4603 67.6199 19.9479 68.8771 19.5693 68.5931C19.5333 68.5665 19.3737 68.5735 19.333 68.6713C19.2337 68.9123 19.793 69.1016 19.9268 69.1767C20.1177 69.2846 20.3234 69.4849 20.5307 69.5452C20.7185 69.5991 21.0111 69.4419 20.7467 69.2729C20.6598 69.2236 20.5933 69.1657 20.5534 69.0719C20.6841 68.6275 21.0643 68.1386 21.2997 67.731C21.6987 67.041 22.0594 66.2759 22.5413 65.643C22.7908 65.323 22.7697 65.6954 23.0419 65.5476L23.0412 65.546ZM24.3194 68.3435C24.2827 68.4069 24.1794 68.6666 24.1074 68.6909C23.8634 68.7738 23.4511 68.1597 23.4096 68.0697C23.2477 67.544 23.4018 66.5833 24.0699 66.5137C24.3945 66.473 24.9195 66.7359 25.0204 67.0778C24.9594 67.4963 24.5236 67.9915 24.3202 68.3427L24.3194 68.3435ZM24.9695 66.3307C24.102 65.8315 22.9269 65.9786 22.5788 67.041C22.4177 67.5346 22.5772 68.0533 22.9105 68.4374C23.1233 68.6815 23.5739 68.8082 23.757 69.0539L23.8258 69.1978C23.8242 69.2862 23.6748 69.4575 23.6318 69.5334C23.48 69.7955 23.351 70.1045 23.164 70.3423C22.9222 70.6498 23.0169 70.4166 22.7431 70.4417C22.4928 70.4651 22.5068 70.6208 22.6672 70.7804C22.7603 70.8727 22.9504 70.9306 23.0693 70.9971C23.2727 71.1105 23.5129 71.3398 23.728 71.3937C23.8313 71.4196 23.9173 71.508 24.0159 71.3781C24.1614 71.1856 23.8821 71.1442 23.8172 71.0276C23.6686 70.7601 23.9823 70.4378 24.1207 70.1984C24.4493 69.6304 24.7755 69.0617 25.1064 68.4945C25.295 68.1706 25.4694 67.7623 25.726 67.483C26.0077 67.1763 25.8356 67.4478 26.1665 67.4024C26.3425 67.3672 26.3949 67.1748 26.1962 67.0605C25.7761 66.8305 25.3834 66.5685 24.9688 66.3299L24.9695 66.3307ZM15.4653 59.0083C15.4035 58.9934 15.2846 59.0278 15.1946 59.0748C15.0734 59.1436 14.514 59.4722 14.5641 59.5778L14.5187 59.541C14.2973 59.7452 14.5265 59.8547 14.6986 59.8422C14.7784 59.8359 14.9803 59.6897 14.9693 59.6959C15.4238 59.5277 15.8017 59.843 16.1084 60.1543C16.7178 60.788 16.8907 61.7197 16.5222 62.5247C16.1952 63.2374 15.33 63.9814 14.5007 63.8875C13.7614 63.8046 12.8501 62.9879 12.7648 62.2337C12.7225 61.8566 13.0151 61.7737 13.0746 61.4944C13.1145 61.3098 12.951 61.1729 12.7875 61.3075C12.4855 61.5265 11.855 61.9137 11.9739 62.2775C12.0349 62.4645 12.2805 62.7023 12.4002 62.8666C12.7131 63.2969 13.0668 63.7068 13.5088 64.0111C14.3059 64.5595 15.3174 64.6354 16.1537 64.1285C16.5386 63.8953 16.8735 63.5597 17.1168 63.1819C17.2458 62.9808 17.6957 62.0913 17.4704 61.8989C17.6026 61.5641 17.3256 60.9413 17.141 60.6159C16.8242 60.0511 16.1412 59.1718 15.4653 59.0075V59.0083ZM12.2258 55.5098C12.4464 55.4222 12.3822 55.5951 12.595 55.6866C12.692 55.7288 12.9259 55.7789 12.8266 55.5692C12.8978 55.3643 12.541 54.8667 12.4198 54.6078C12.1288 53.9819 11.8338 53.3584 11.5459 52.7318C11.1963 51.9691 10.838 51.2149 10.4828 50.4498C10.3373 50.1369 10.227 49.6276 10.0056 49.3796C9.91484 49.2787 9.8194 49.1457 9.68875 49.2936C9.55498 49.4446 9.81627 49.655 9.7662 49.8099C9.67467 50.0923 8.48322 50.4991 8.30955 50.5797L6.6714 51.3424C6.50398 51.4207 6.14647 51.6585 5.96419 51.5975C5.84215 51.556 5.61607 51.0397 5.51671 51.4887C5.47369 51.6827 5.74827 52.0066 5.82651 52.1717C5.93525 52.4025 6.00018 52.7404 6.18558 52.925C6.60725 53.209 6.33109 52.4768 6.36943 52.3907C6.48912 52.1232 7.43962 51.8478 7.67744 51.7367L8.86968 51.1821C9.18338 51.0366 9.57297 50.7416 9.90389 50.7283C10.1308 50.7197 9.98134 50.6775 10.1096 50.8175C10.288 51.0107 10.3881 51.416 10.4992 51.6538C10.5501 51.7633 10.8309 52.1803 10.8028 52.3055C10.7433 52.5675 9.79515 52.8429 9.52525 52.9696L8.29077 53.5431C8.0021 53.6776 7.32149 54.1478 7.04377 53.9788C6.93347 53.9115 6.97024 53.73 6.77857 53.759C6.60647 53.7848 6.65888 53.9428 6.67922 54.05C6.71364 54.2346 6.88262 54.4451 6.96241 54.6164C7.03595 54.7729 7.11575 55.2023 7.28472 55.2876C7.53663 55.4143 7.61095 55.1202 7.50846 55.0138C7.39894 54.6344 8.27513 54.4146 8.52859 54.2964C9.2045 53.9804 9.99542 53.6549 10.5962 53.335C10.6119 53.3287 11.1587 53.0666 11.1861 53.13C11.3942 53.5689 11.6062 54.0265 11.8182 54.4842C11.8909 54.6422 11.9269 54.65 11.8628 54.7533C11.7525 54.9309 11.28 55.056 11.0742 55.1531C10.2371 55.5466 9.40321 55.9831 8.5458 56.3312C8.35257 56.4094 8.29703 56.4235 8.13509 56.3328C8.02322 56.2702 7.84016 55.9393 7.7588 56.3062C7.70873 56.5323 8.16169 57.227 8.26808 57.4483C8.32832 57.5735 8.37917 57.8137 8.57005 57.773C8.85951 57.7104 8.57397 57.4413 8.59978 57.3028C8.65533 57.0071 9.1474 56.9132 9.40243 56.7943C10.3162 56.3703 11.2205 55.8916 12.1648 55.5372L12.2273 55.509L12.2258 55.5098ZM6.48051 44.5325L5.08801 44.2845L6.35456 43.6305L6.48051 44.5317V44.5325ZM8.64828 45.763C8.69131 45.842 8.64907 45.9563 8.70852 46.0282C8.84777 46.198 9.08716 46.1127 9.01128 45.8491C8.98624 45.6582 8.97294 44.5982 8.74451 44.4957C8.48009 44.3768 8.52546 44.7531 8.47461 44.8704C8.14996 44.9041 7.76819 44.7812 7.43493 44.7179C6.98588 44.6326 6.98432 44.6639 6.92173 44.2141C6.87871 43.9058 6.72929 43.5366 6.91861 43.3293C7.11966 43.1094 7.74237 42.8137 8.03339 42.7183L8.2188 42.6213L8.31972 42.6862C8.5724 42.5861 8.51295 42.4062 8.484 42.1629C8.46601 42.0095 8.4754 41.138 8.20315 41.1513C7.96142 41.1631 8.06155 41.4619 8.03809 41.6051C7.93169 41.8945 7.58591 42.0596 7.33401 42.2067C6.72929 42.5571 6.11596 42.8927 5.5042 43.2307L4.61941 43.7189C4.46295 43.8049 3.70567 44.1022 3.68377 44.34C3.64778 44.7218 5.89144 44.9862 6.12613 45.037L8.10224 45.4595C8.31972 45.4963 8.53876 45.5651 8.64828 45.7646V45.763ZM4.26189 34.1904C4.32839 34.1458 4.66243 34.2397 4.7391 34.2498C5.08879 34.2929 5.77409 34.2397 6.07841 34.4157C6.56031 34.6942 5.77722 35.4898 5.45726 35.6048C4.83219 35.8285 3.99904 35.5531 4.09604 34.7755C4.1156 34.6566 4.16176 34.2584 4.26189 34.1912V34.1904ZM6.2912 35.7855C6.81143 36.1704 7.47874 36.6046 7.81904 37.1686C7.96455 37.4096 7.90509 37.5918 7.96924 37.8257C7.99584 37.9212 8.0107 38.0393 8.1304 38.0385C8.3604 38.0378 8.35179 37.5692 8.36978 37.3923C8.4574 36.5529 7.95125 36.1164 7.32071 35.6009C7.13061 35.4452 6.69799 35.2199 6.63619 34.9938C6.44766 34.3054 7.0915 34.5377 7.49517 34.594C7.77601 34.6332 8.21019 34.6136 8.31189 34.8976C8.33927 34.9742 8.26965 35.4147 8.46835 35.2872C8.69288 35.4131 8.72495 34.375 8.74529 34.2373C8.75468 34.1716 8.90645 33.2047 8.53094 33.577C8.35023 33.854 8.47227 33.8962 8.03809 33.8774C7.41381 33.8501 6.7864 33.739 6.16524 33.6623L4.94093 33.5113C4.60533 33.4699 4.14298 33.5019 4.22747 33.0568C4.23529 32.9575 4.19931 32.8917 4.09604 32.8589L4.07962 32.9136C4.00921 32.7861 3.93254 32.9348 3.88013 33.0623C3.79094 33.2805 3.83397 33.606 3.79564 33.843C3.71037 34.3695 3.53591 34.9406 3.72054 35.435C4.05067 36.6523 5.61998 36.7853 6.29198 35.7847L6.2912 35.7855ZM19.1335 15.6153C18.9153 15.4784 18.8277 15.7749 18.6376 15.7569C18.5445 15.7475 18.3919 15.5558 18.3317 15.4901C18.0047 15.1349 17.7223 14.7336 17.4265 14.3526C18.3387 14.5287 19.3408 14.7594 20.2648 14.7172C20.6254 14.6875 21.1863 14.3871 21.4273 14.0788C21.6181 13.834 21.5532 13.6986 21.2575 13.7737L20.9446 13.9263C20.4009 14.0976 19.6882 13.9208 19.1398 13.8496C18.8073 13.8066 18.4741 13.7628 18.1416 13.7151C17.9937 13.6939 17.7856 13.7096 17.6589 13.6447C17.4844 13.5555 17.5681 13.7135 17.5126 13.4952C17.486 13.3896 17.5486 13.194 17.5619 13.0884C17.6245 12.5893 17.6886 12.0879 17.7614 11.5903C17.7895 11.3955 17.8208 11.2062 17.9155 11.0294C17.9812 10.9074 18.2777 10.6766 18.1525 10.5209C17.9773 10.3019 17.5384 10.8096 17.4101 10.9081C17.299 10.9934 17.0964 11.074 17.0213 11.189C16.8609 11.437 17.0018 11.358 17.105 11.5019L17.2052 11.6138C17.2724 11.7882 17.1473 12.2615 17.1277 12.443L16.9853 13.7863L16.4354 13.0806C16.3391 12.9562 16.1647 12.806 16.1044 12.6566C16.0145 12.4329 16.0825 12.5174 16.1506 12.3108C16.2085 12.134 16.3251 11.9072 15.9589 12.0214C15.7227 12.0949 15.4332 12.4477 15.2283 12.5971C15.1289 12.6691 14.6494 12.9382 14.8246 13.1307C15.0084 13.3317 15.2212 12.9328 15.4622 13.0697C15.7751 13.248 16.149 13.9435 16.3673 14.2236C16.8578 14.8518 17.5736 15.5879 17.885 16.2576C17.9155 16.3773 17.4602 16.9781 18.0289 16.7285C18.2527 16.6307 18.4827 16.3553 18.6868 16.2044C18.8683 16.0706 19.3072 15.8664 19.1335 15.6129V15.6153ZM25.3067 10.8205C24.2874 10.4849 23.4378 9.0932 23.7382 8.03082C24.0065 7.0811 25.1244 6.6172 26.0116 6.99036C26.8846 7.35648 27.4737 8.45875 27.4737 9.38343C27.4737 10.4841 26.2995 11.1475 25.3067 10.8213V10.8205ZM24.6723 6.49203C23.4401 6.98879 22.7267 8.253 23.0818 9.56258C23.4761 11.0161 24.957 11.8946 26.398 11.3642C27.7725 10.8581 28.5126 9.40768 28.0119 8.00579C27.5058 6.58043 26.0804 5.92407 24.6723 6.49203ZM36.9146 8.22327C36.3498 8.0363 36.004 7.03729 35.7372 6.55852C35.2929 5.75979 34.8915 4.90082 34.3979 4.13181C34.049 3.58732 33.9215 4.09113 33.8487 4.43143L33.2565 7.2008C33.1454 7.72181 33.1149 8.81078 32.5149 8.86554C32.4374 8.87337 32.3428 8.94691 32.3545 9.05408C32.4202 9.32319 33.819 9.11275 33.9794 8.9383C34.1507 8.6598 33.7126 8.75289 33.6383 8.6864C33.5241 8.58391 33.65 8.22562 33.6797 8.06916C33.8605 7.12491 34.0294 6.219 34.1976 5.26928C34.6733 6.18771 35.1192 7.03104 35.6066 7.92365C35.6832 8.06446 35.8225 8.23657 35.8624 8.39303C35.8726 8.43058 35.7638 8.50334 35.7943 8.56592C35.8788 8.73959 36.0228 8.69031 36.1823 8.68249C36.4006 8.67232 37.3143 8.68561 37.3323 8.36643C37.251 8.11531 37.0828 8.2796 36.9154 8.22484L36.9146 8.22327ZM7.60078 23.0355C7.69856 23.0143 7.86207 23.145 7.9536 23.2005C8.42455 23.4829 8.88611 23.7833 9.35158 24.0751C9.86634 24.3982 10.4296 24.6924 10.9021 25.0718L10.9811 25.1313C11.2455 25.4324 10.9983 25.2032 11.0617 25.4833C11.1391 25.8244 11.3113 25.7266 11.4716 25.4645C11.6539 25.1657 11.8315 24.8653 12.0177 24.5688C12.4894 23.8146 13.0441 23.0183 13.4681 22.2821C13.9257 21.4873 14.446 20.7167 14.9388 19.936C15.035 19.81 14.9678 19.6004 14.7644 19.6418C14.6415 19.6669 14.5085 19.9266 14.4702 19.9696C14.2285 19.9907 13.9461 19.7529 13.7442 19.6316C13.31 19.3696 12.8821 19.0965 12.4519 18.8267C12.0059 18.5474 11.377 18.297 11.0116 17.9247C10.7855 17.6939 10.9342 17.8167 10.935 17.5898C10.935 17.4694 11.0437 17.2902 10.7942 17.3004C10.5837 17.309 10.4022 17.819 10.3185 17.9528C10.2137 18.1202 9.78654 18.5474 9.89919 18.7688C10.0408 19.048 10.288 18.588 10.4445 18.5145C10.9005 18.7015 11.3746 19.0746 11.8057 19.3445C12.4511 19.7482 13.1771 20.2332 13.7622 20.5954C13.9461 20.7715 13.6918 20.9624 13.569 21.1579C13.4532 21.3433 13.1153 22.1429 12.9095 22.2093C12.7444 22.2633 12.1601 21.8018 12.0044 21.7055L10.8513 20.985C10.4585 20.7386 9.97273 20.5172 9.62147 20.216C9.53698 20.1441 9.46267 20.0885 9.45328 19.9993C9.43685 19.8523 9.68328 19.7373 9.47988 19.5941C9.28039 19.4548 8.34162 20.8028 8.56458 21.0288C8.77658 21.1509 8.7758 20.9131 8.90801 20.8513C9.13801 20.7425 9.42277 21.0132 9.63321 21.1454L11.2549 22.1601C11.5373 22.3376 12.0959 22.5989 12.3087 22.8469C12.4644 23.0284 12.4174 22.9001 12.3353 23.1293C12.2633 23.3312 12.081 23.5354 11.9676 23.7169C11.8565 23.8944 11.7298 24.2222 11.5671 24.3568L11.4364 24.4225C11.2541 24.428 10.8513 24.0908 10.6893 23.9907L9.43763 23.2084C9.29916 23.1223 8.30642 22.3822 8.16247 22.4785C8.21098 22.3611 8.0686 22.3924 8.05295 22.2571L8.13118 22.0591C8.09911 21.8018 8.03417 21.7329 7.80026 21.9402C7.62816 22.0928 7.51863 22.4237 7.38799 22.6248C7.33401 22.7069 6.80282 23.3609 7.22449 23.3609C7.40911 23.3609 7.42867 23.0738 7.59999 23.037L7.60078 23.0355Z" fill="#007AC5"/>
<path d="M8.18801 28.8418C8.05658 29.2947 7.58328 29.5552 7.13033 29.4238C6.67737 29.2932 6.41687 28.8191 6.54751 28.3669C6.67894 27.9139 7.15223 27.6534 7.60519 27.7841C8.05814 27.9155 8.31865 28.3888 8.18801 28.8418Z" fill="#007AC5"/>
<path d="M27.8311 57.3655L28.9881 55.1148V23.6684H34.0911V55.0803H37.6983V42.8114H42.4078V55.0678H46.4899V49.4829C46.4899 46.0987 46.3146 41.3907 42.5056 38.9593L44.7242 38.1442C49.3156 39.8519 51.614 44.3088 51.614 50.1815V55.1163L52.7702 57.3655H27.8303H27.8311ZM36.916 19.9383L37.1069 19.9415H39.029C42.824 19.9415 44.4128 20.6096 46.2106 21.995C48.8251 24.0455 49.2381 27.0206 49.2381 28.5101C49.2381 30.3571 48.6725 32.3074 47.2878 33.897C46.2614 35.1276 44.477 36.9152 40.9777 37.3329C38.5854 37.6232 36.8182 37.516 35.9366 37.4205V35.5422C36.3293 35.5954 36.9074 35.6478 37.6952 35.6478C40.0757 35.6478 41.7624 34.4564 42.788 33.1726C43.9536 31.7574 44.1977 30.4244 44.2486 29.2329H37.6991V27.3875H44.1907C44.0248 26.1405 43.5484 25.1876 42.7747 24.2512C41.2868 22.4042 39.1831 22.0967 37.7969 22.0967L28.4444 22.0928L27.3406 19.9376H36.9168L36.916 19.9383ZM11.0514 39C11.0514 54.4334 23.5667 66.9487 38.9993 66.9487C54.4319 66.9487 66.9488 54.4326 66.9488 39C66.9488 23.5667 54.4319 11.0521 38.9993 11.0521C23.5667 11.0521 11.0514 23.5675 11.0514 39Z" fill="#007AC5"/>
</svg>
