<svg width="36" height="36" viewBox="0 0 36 36" fill="none" xmlns="http://www.w3.org/2000/svg">
<mask id="path-1-inside-1_132_3538" fill="white">
<path d="M36 18C36 27.9411 27.9411 36 18 36C8.05887 36 0 27.9411 0 18C0 8.05887 8.05887 0 18 0C27.9411 0 36 8.05887 36 18Z"/>
</mask>
<path d="M36 18C36 27.9411 27.9411 36 18 36C8.05887 36 0 27.9411 0 18C0 8.05887 8.05887 0 18 0C27.9411 0 36 8.05887 36 18Z" fill="white"/>
<path d="M35 18C35 27.3888 27.3888 35 18 35V37C28.4934 37 37 28.4934 37 18H35ZM18 35C8.61116 35 1 27.3888 1 18H-1C-1 28.4934 7.50659 37 18 37V35ZM1 18C1 8.61116 8.61116 1 18 1V-1C7.50659 -1 -1 7.50659 -1 18H1ZM18 1C27.3888 1 35 8.61116 35 18H37C37 7.50659 28.4934 -1 18 -1V1Z" fill="#CBD0DB" mask="url(#path-1-inside-1_132_3538)"/>
<rect x="8.59073" y="11.8637" width="18.8182" height="0.818182" fill="#3670FF" stroke="#1D212C" stroke-width="0.818182"/>
<rect x="8.59073" y="17.591" width="18.8182" height="0.818181" fill="#3670FF" stroke="#1D212C" stroke-width="0.818181"/>
<rect x="8.59073" y="23.3183" width="18.8182" height="0.818182" fill="#3670FF" stroke="#1D212C" stroke-width="0.818182"/>
</svg>
